<svg width="18" height="18" viewBox="0 0 18 18" fill="none" xmlns="http://www.w3.org/2000/svg">
<path fill-rule="evenodd" clip-rule="evenodd" d="M13.2426 4.75742C13.3676 4.88244 13.4379 5.05201 13.4379 5.22882C13.4379 5.40563 13.3676 5.5752 13.2426 5.70023L9.4714 9.47147C9.34638 9.59649 9.17681 9.66673 9 9.66673C8.82319 9.66673 8.65362 9.59649 8.5286 9.47147L4.75741 5.70023C4.63239 5.5752 4.56215 5.40563 4.56215 5.22882C4.56215 5.05201 4.63239 4.88244 4.75741 4.75742C4.88243 4.63239 5.052 4.56215 5.22881 4.56215C5.40562 4.56215 5.57518 4.63239 5.70021 4.75742L9 8.05725L12.2998 4.75742C12.4248 4.63239 12.5944 4.56215 12.7712 4.56215C12.948 4.56215 13.1176 4.63239 13.2426 4.75742Z" fill="#FFC01F"/>
<path fill-rule="evenodd" clip-rule="evenodd" d="M8.52859 8.52829C8.65362 8.40327 8.82319 8.33303 9 8.33303C9.17681 8.33303 9.34638 8.40327 9.47141 8.52829L13.2426 12.2995C13.3677 12.4246 13.4379 12.5941 13.4379 12.7709C13.4379 12.9477 13.3677 13.1173 13.2426 13.2423C13.1176 13.3674 12.9481 13.4376 12.7712 13.4376C12.5944 13.4376 12.4249 13.3674 12.2998 13.2423L9 9.9425L5.70016 13.2423C5.57514 13.3674 5.40557 13.4376 5.22876 13.4376C5.05195 13.4376 4.88238 13.3674 4.75735 13.2423C4.63233 13.1173 4.56209 12.9477 4.56209 12.7709C4.56209 12.5941 4.63233 12.4246 4.75735 12.2995L8.52859 8.52829Z" fill="#FFC01F"/>
</svg>
