<svg width="43" height="43" viewBox="0 0 43 43" fill="none" xmlns="http://www.w3.org/2000/svg">
<g filter="url(#filter0_d_272_183)">
<path d="M21.5 7C25.3456 7 29.0338 8.52768 31.753 11.247C34.4723 13.9662 36 17.6544 36 21.5C36 25.3456 34.4723 29.0338 31.753 31.7531C29.0338 34.4723 25.3456 36 21.5 36C17.6544 36 13.9662 34.4723 11.2469 31.7531C8.52767 29.0338 7 25.3456 7 21.5C7 17.6544 8.52767 13.9662 11.247 11.247C13.9662 8.52768 17.6544 7 21.5 7ZM15.1562 20.5938C14.9159 20.5938 14.6854 20.6892 14.5154 20.8592C14.3455 21.0291 14.25 21.2596 14.25 21.5C14.25 21.7404 14.3455 21.9709 14.5154 22.1408C14.6854 22.3108 14.9159 22.4063 15.1562 22.4063L25.6561 22.4063L21.7646 26.2959C21.6804 26.3801 21.6135 26.4802 21.5679 26.5903C21.5223 26.7003 21.4989 26.8183 21.4989 26.9375C21.4989 27.0567 21.5223 27.1747 21.5679 27.2847C21.6135 27.3948 21.6804 27.4949 21.7646 27.5791C21.8489 27.6634 21.9489 27.7302 22.059 27.7758C22.1691 27.8214 22.2871 27.8449 22.4062 27.8449C22.5254 27.8449 22.6434 27.8214 22.7535 27.7758C22.8636 27.7302 22.9636 27.6634 23.0479 27.5791L28.4854 22.1416C28.5698 22.0574 28.6367 21.9574 28.6824 21.8473C28.7281 21.7372 28.7516 21.6192 28.7516 21.5C28.7516 21.3808 28.7281 21.2628 28.6824 21.1527C28.6367 21.0426 28.5698 20.9426 28.4854 20.8584L23.0479 15.4209C22.9636 15.3366 22.8636 15.2698 22.7535 15.2242C22.6434 15.1786 22.5254 15.1551 22.4062 15.1551C22.2871 15.1551 22.1691 15.1786 22.059 15.2242C21.9489 15.2698 21.8489 15.3366 21.7646 15.4209C21.6804 15.5051 21.6135 15.6052 21.5679 15.7153C21.5223 15.8253 21.4989 15.9433 21.4989 16.0625C21.4989 16.1817 21.5223 16.2997 21.5679 16.4097C21.6135 16.5198 21.6804 16.6199 21.7646 16.7041L25.6561 20.5938L15.1562 20.5938Z" fill="white"/>
</g>
<defs>
<filter id="filter0_d_272_183" x="0" y="0" width="43" height="43" filterUnits="userSpaceOnUse" color-interpolation-filters="sRGB">
<feFlood flood-opacity="0" result="BackgroundImageFix"/>
<feColorMatrix in="SourceAlpha" type="matrix" values="0 0 0 0 0 0 0 0 0 0 0 0 0 0 0 0 0 0 127 0" result="hardAlpha"/>
<feOffset/>
<feGaussianBlur stdDeviation="3.5"/>
<feComposite in2="hardAlpha" operator="out"/>
<feColorMatrix type="matrix" values="0 0 0 0 0.220833 0 0 0 0 0.220833 0 0 0 0 0.220833 0 0 0 0.25 0"/>
<feBlend mode="normal" in2="BackgroundImageFix" result="effect1_dropShadow_272_183"/>
<feBlend mode="normal" in="SourceGraphic" in2="effect1_dropShadow_272_183" result="shape"/>
</filter>
</defs>
</svg>
