<svg width="43" height="43" viewBox="0 0 43 43" fill="none" xmlns="http://www.w3.org/2000/svg">
<g filter="url(#filter0_d_272_182)">
<path d="M21.5 36C17.6544 36 13.9662 34.4723 11.2469 31.7531C8.52767 29.0338 7 25.3456 7 21.5C7 17.6544 8.52767 13.9662 11.2469 11.247C13.9662 8.52768 17.6544 7 21.5 7C25.3456 7 29.0338 8.52767 31.753 11.247C34.4723 13.9662 36 17.6544 36 21.5C36 25.3456 34.4723 29.0338 31.753 31.753C29.0338 34.4723 25.3456 36 21.5 36ZM27.8437 22.4063C28.0841 22.4063 28.3146 22.3108 28.4846 22.1408C28.6545 21.9709 28.75 21.7404 28.75 21.5C28.75 21.2596 28.6545 21.0291 28.4846 20.8592C28.3146 20.6892 28.0841 20.5938 27.8437 20.5938L17.3439 20.5938L21.2354 16.7041C21.3196 16.6199 21.3865 16.5198 21.4321 16.4097C21.4777 16.2997 21.5011 16.1817 21.5011 16.0625C21.5011 15.9433 21.4777 15.8253 21.4321 15.7153C21.3865 15.6052 21.3196 15.5051 21.2354 15.4209C21.1511 15.3366 21.0511 15.2698 20.941 15.2242C20.8309 15.1786 20.7129 15.1551 20.5937 15.1551C20.4746 15.1551 20.3566 15.1786 20.2465 15.2242C20.1364 15.2698 20.0364 15.3366 19.9521 15.4209L14.5146 20.8584C14.4302 20.9426 14.3633 21.0426 14.3176 21.1527C14.2719 21.2628 14.2484 21.3808 14.2484 21.5C14.2484 21.6192 14.2719 21.7372 14.3176 21.8473C14.3633 21.9574 14.4302 22.0574 14.5146 22.1416L19.9521 27.5791C20.0364 27.6634 20.1364 27.7302 20.2465 27.7758C20.3566 27.8214 20.4746 27.8449 20.5937 27.8449C20.7129 27.8449 20.8309 27.8214 20.941 27.7758C21.0511 27.7302 21.1511 27.6634 21.2354 27.5791C21.3196 27.4949 21.3865 27.3948 21.4321 27.2847C21.4777 27.1747 21.5011 27.0567 21.5011 26.9375C21.5011 26.8183 21.4777 26.7003 21.4321 26.5903C21.3865 26.4802 21.3196 26.3801 21.2354 26.2959L17.3439 22.4063L27.8437 22.4063Z" fill="white"/>
</g>
<defs>
<filter id="filter0_d_272_182" x="0" y="0" width="43" height="43" filterUnits="userSpaceOnUse" color-interpolation-filters="sRGB">
<feFlood flood-opacity="0" result="BackgroundImageFix"/>
<feColorMatrix in="SourceAlpha" type="matrix" values="0 0 0 0 0 0 0 0 0 0 0 0 0 0 0 0 0 0 127 0" result="hardAlpha"/>
<feOffset/>
<feGaussianBlur stdDeviation="3.5"/>
<feComposite in2="hardAlpha" operator="out"/>
<feColorMatrix type="matrix" values="0 0 0 0 0.220833 0 0 0 0 0.220833 0 0 0 0 0.220833 0 0 0 0.25 0"/>
<feBlend mode="normal" in2="BackgroundImageFix" result="effect1_dropShadow_272_182"/>
<feBlend mode="normal" in="SourceGraphic" in2="effect1_dropShadow_272_182" result="shape"/>
</filter>
</defs>
</svg>
